# xmcd CD database file
# Copyright (C) 1997 Ti Kan
# 
# Track frame offsets:
#     183
#     14465
#     27373
#     39748
#     56290
#     70010
#     88155
#     100813
#     118910
#     134038
#     151558
#     169138
#     183225
# 
# Disc length: 2664 seconds
# 
# Revision: 1
# Processed by: cddbd v1.4b41PL1 Copyright (c) Steve Scherf et al.
# Submitted via: DiscPlay 4.0.3
# 
DISCID=a90a660d
DTITLE=The Sunday Skifflers - Breakthrough
DYEAR=1900
DGENRE=
TTITLE0=Boney Fingers
TTITLE1=Back to Wichita
TTITLE2=Dancin' Square
TTITLE3=The right Way
TTITLE4=Whisky straight from Delaware
TTITLE5=Ontario's Snow
TTITLE6=String-Love
TTITLE7=Ridin' on a Harley
TTITLE8=Stability
TTITLE9=Diabolic Workaholic
TTITLE10=Out among the Stars
TTITLE11=The Man with the Plastic Bag
TTITLE12=What Texans do
EXTD=
EXTT0=
EXTT1=
EXTT2=
EXTT3=
EXTT4=
EXTT5=
EXTT6=
EXTT7=
EXTT8=
EXTT9=
EXTT10=
EXTT11=
EXTT12=
PLAYORDER=
